<svg width="24" height="24" viewBox="0 0 24 24" fill="none" xmlns="http://www.w3.org/2000/svg">
<path d="M12.708 0.293007C12.343 -0.0799934 11.7 -0.114993 11.293 0.293007L4.29301 7.29201C3.90201 7.68301 3.90201 8.31501 4.29301 8.70601C4.68401 9.09701 5.31701 9.09701 5.70701 8.70601L11 3.41301V17.608C11 18.16 11.448 18.608 12 18.608C12.553 18.608 13 18.16 13 17.608V3.41301L18.293 8.70601C18.684 9.09701 19.317 9.09701 19.707 8.70601C20.098 8.31501 20.098 7.68201 19.707 7.29201L12.708 0.293007Z" fill="#171717"/>
<path d="M23 16.718C22.447 16.718 22 17.166 22 17.718V19.631C22 20.675 21.119 22 20.13 22H3.869C2.88 22 2 20.675 2 19.631V17.718C2 17.166 1.552 16.718 1 16.718C0.447 16.718 0 17.166 0 17.718V19.631C0 21.693 1.654 24 3.869 24H20.13C22.345 24 24 21.693 24 19.631V17.718C24 17.166 23.552 16.718 23 16.718Z" fill="#171717"/>
</svg>